<?xml version="1.0" encoding="UTF-8"?>
<svg width="368px" height="198px" viewBox="0 0 368 198" version="1.1" xmlns="http://www.w3.org/2000/svg" xmlns:xlink="http://www.w3.org/1999/xlink">
    <title>Tim Logo</title>
    <g id="Tim-Logo" stroke="none" stroke-width="1" fill="none" fill-rule="evenodd">
        <g id="Group-Copy" transform="translate(3.000000, 24.000000)" fill-rule="nonzero">
            <g id="TIMCAST" fill="#FFFFFF">
                <polygon id="Path" points="16.1404421 15.4305556 0 15.4305556 0 1.40277778 47.7195681 1.40277778 47.7195681 15.4305556 31.5791259 15.4305556 31.5791259 99.5972222 16.1404421 99.5972222"></polygon>
                <polygon id="Path" points="54.6432446 1.40277778 70.0819284 1.40277778 70.0819284 99.5972222 54.6432446 99.5972222"></polygon>
                <polygon id="Path" points="81.0758033 1.40277778 103.111016 1.40277778 112.935633 71.6819444 113.216336 71.6819444 123.040953 1.40277778 145.076165 1.40277778 145.076165 99.5972222 130.479591 99.5972222 130.479591 25.25 130.198888 25.25 118.970754 99.5972222 106.058401 99.5972222 94.830267 25.25 94.5495637 25.25 94.5495637 99.5972222 81.0758033 99.5972222"></polygon>
                <path d="M177.824549,101 C170.432694,101 164.795236,98.8958333 160.912173,94.6875 C157.02911,90.4791667 155.087578,84.5407407 155.087578,76.8722222 L155.087578,24.1277778 C155.087578,16.4592593 157.02911,10.5208333 160.912173,6.3125 C164.795236,2.10416667 170.432694,0 177.824549,0 C185.216404,0 190.853863,2.10416667 194.736925,6.3125 C198.619988,10.5208333 200.56152,16.4592593 200.56152,24.1277778 L200.56152,34.5083333 L185.964946,34.5083333 L185.964946,23.1458333 C185.964946,17.0671296 183.391832,14.0277778 178.245604,14.0277778 C173.099376,14.0277778 170.526262,17.0671296 170.526262,23.1458333 L170.526262,77.9944444 C170.526262,83.9796296 173.099376,86.9722222 178.245604,86.9722222 C183.391832,86.9722222 185.964946,83.9796296 185.964946,77.9944444 L185.964946,62.9847222 L200.56152,62.9847222 L200.56152,76.8722222 C200.56152,84.5407407 198.619988,90.4791667 194.736925,94.6875 C190.853863,98.8958333 185.216404,101 177.824549,101 Z" id="Path"></path>
                <path d="M221.23966,1.40277778 L242.152059,1.40277778 L258.152149,99.5972222 L242.713466,99.5972222 L239.906432,80.0986111 L239.906432,80.3791667 L222.362473,80.3791667 L219.55544,99.5972222 L205.23957,99.5972222 L221.23966,1.40277778 Z M238.08186,67.0527778 L231.204629,18.5166667 L230.923925,18.5166667 L224.187045,67.0527778 L238.08186,67.0527778 Z" id="Shape"></path>
                <path d="M284.72506,101 C277.239637,101 271.578787,98.8724537 267.742508,94.6173611 C263.906229,90.3622685 261.988089,84.2601852 261.988089,76.3111111 L261.988089,70.7 L276.584663,70.7 L276.584663,77.4333333 C276.584663,83.7925926 279.251345,86.9722222 284.584708,86.9722222 C287.204606,86.9722222 289.192921,86.2006944 290.549654,84.6576389 C291.906387,83.1145833 292.584753,80.612963 292.584753,77.1527778 C292.584753,73.037963 291.649076,69.4141204 289.77772,66.28125 C287.906364,63.1483796 284.444356,59.3842593 279.391696,54.9888889 C273.029087,49.3777778 268.584618,44.3043981 266.058288,39.76875 C263.531958,35.2331019 262.268792,30.112963 262.268792,24.4083333 C262.268792,16.6462963 264.233716,10.6377315 268.163563,6.38263889 C272.093409,2.1275463 277.801044,0 285.286467,0 C292.678321,0 298.268996,2.1275463 302.058491,6.38263889 C305.847986,10.6377315 307.742734,16.7398148 307.742734,24.6888889 L307.742734,28.7569444 L293.14616,28.7569444 L293.14616,23.7069444 C293.14616,20.3402778 292.491186,17.8854167 291.181237,16.3423611 C289.871288,14.7993056 287.953148,14.0277778 285.426818,14.0277778 C280.28059,14.0277778 277.707476,17.1606481 277.707476,23.4263889 C277.707476,26.9800926 278.666546,30.3 280.584686,33.3861111 C282.502825,36.4722222 285.988225,40.212963 291.040885,44.6083333 C297.497062,50.2194444 301.941531,55.3162037 304.374294,59.8986111 C306.807056,64.4810185 308.023437,69.8583333 308.023437,76.0305556 C308.023437,84.0731481 306.035122,90.2453704 302.058491,94.5472222 C298.08186,98.8490741 292.30405,101 284.72506,101 Z" id="Path"></path>
                <polygon id="Path" points="328.420874 15.4305556 312.280432 15.4305556 312.280432 1.40277778 360 1.40277778 360 15.4305556 343.859558 15.4305556 343.859558 99.5972222 328.420874 99.5972222"></polygon>
            </g>
            <g id="News,-Politics,-Cult" transform="translate(0.000000, 130.000000)" fill="#929393">
                <polygon id="Path" points="0 0.493975904 6.78089202 0.493975904 12.0385402 21.1915663 12.136814 21.1915663 12.136814 0.493975904 16.95223 0.493975904 16.95223 35.0722892 11.3997605 35.0722892 4.91368987 9.83012048 4.81541607 9.83012048 4.81541607 35.0722892 0 35.0722892"></polygon>
                <polygon id="Path" points="20.8011683 0.493975904 35.5422379 0.493975904 35.5422379 5.43373494 26.2062272 5.43373494 26.2062272 14.5722892 33.6258989 14.5722892 33.6258989 19.5120482 26.2062272 19.5120482 26.2062272 30.1325301 35.5422379 30.1325301 35.5422379 35.0722892 20.8011683 35.0722892"></polygon>
                <polygon id="Path" points="37.1800158 0.493975904 42.388527 0.493975904 44.7962351 27.0698795 44.8945089 27.0698795 47.4496276 0.493975904 53.3460554 0.493975904 55.9011742 27.0698795 55.999448 27.0698795 58.407156 0.493975904 63.0751614 0.493975904 59.5864416 35.0722892 52.8546865 35.0722892 50.3978415 11.7566265 50.2995677 11.7566265 47.8427228 35.0722892 40.6687356 35.0722892"></polygon>
                <path d="M72.6731168,35.5662651 C70.0524822,35.5662651 68.0706273,34.8170683 66.7275521,33.3186747 C65.3844768,31.8202811 64.7129392,29.6714859 64.7129392,26.8722892 L64.7129392,24.8963855 L69.8231767,24.8963855 L69.8231767,27.2674699 C69.8231767,29.5068273 70.7567778,30.626506 72.6239799,30.626506 C73.541202,30.626506 74.2373081,30.3548193 74.7122981,29.8114458 C75.1872881,29.2680723 75.4247831,28.3871486 75.4247831,27.1686747 C75.4247831,25.7196787 75.0972038,24.4435743 74.4420452,23.3403614 C73.7868865,22.2371486 72.574843,20.9116466 70.8059147,19.3638554 C68.5783753,17.3879518 67.0223735,15.6014056 66.1379093,14.0042169 C65.2534451,12.4070281 64.811213,10.6040161 64.811213,8.59518072 C64.811213,5.86184739 65.4991296,3.74598394 66.8749628,2.24759036 C68.2507959,0.749196787 70.2490298,0 72.8696644,0 C75.4575411,0 77.4148275,0.749196787 78.7415238,2.24759036 C80.0682201,3.74598394 80.7315682,5.89477912 80.7315682,8.6939759 L80.7315682,10.126506 L75.6213307,10.126506 L75.6213307,8.34819277 C75.6213307,7.1626506 75.3920252,6.29819277 74.9334142,5.75481928 C74.4748031,5.21144578 73.8032655,4.93975904 72.9188013,4.93975904 C71.117115,4.93975904 70.2162719,6.04297189 70.2162719,8.24939759 C70.2162719,9.50080321 70.5520407,10.6698795 71.2235783,11.7566265 C71.8951159,12.8433735 73.1153489,14.1606426 74.8842773,15.7084337 C77.1445746,17.6843373 78.7005764,19.4791165 79.5522826,21.0927711 C80.4039889,22.7064257 80.829842,24.6 80.829842,26.773494 C80.829842,29.6056225 80.1337359,31.7791165 78.7415238,33.2939759 C77.3493117,34.8088353 75.3265093,35.5662651 72.6731168,35.5662651 Z" id="Path"></path>
                <polygon id="Path" points="85.5141076 35.0722892 83.7451792 35.0722892 83.7451792 29.8361446 88.9536905 29.8361446 88.9536905 34.5289157 86.251161 41 83.7451792 41"></polygon>
                <path d="M100.484245,0.493975904 L108.444423,0.493975904 C111.130573,0.493975904 113.145186,1.2184739 114.488261,2.66746988 C115.831336,4.11646586 116.502874,6.24056225 116.502874,9.03975904 L116.502874,12.4481928 C116.502874,15.2473896 115.831336,17.3714859 114.488261,18.8204819 C113.145186,20.2694779 111.130573,20.9939759 108.444423,20.9939759 L105.889304,20.9939759 L105.889304,35.0722892 L100.484245,35.0722892 L100.484245,0.493975904 Z M108.444423,16.0542169 C109.328887,16.0542169 109.992235,15.8072289 110.434467,15.313253 C110.876699,14.8192771 111.097815,13.9795181 111.097815,12.7939759 L111.097815,8.6939759 C111.097815,7.50843373 110.876699,6.6686747 110.434467,6.1746988 C109.992235,5.68072289 109.328887,5.43373494 108.444423,5.43373494 L105.889304,5.43373494 L105.889304,16.0542169 L108.444423,16.0542169 Z" id="Shape"></path>
                <path d="M127.083567,35.5662651 C124.430175,35.5662651 122.399183,34.8088353 120.990592,33.2939759 C119.582001,31.7791165 118.877705,29.6385542 118.877705,26.8722892 L118.877705,8.6939759 C118.877705,5.92771084 119.582001,3.78714859 120.990592,2.27228916 C122.399183,0.757429719 124.430175,0 127.083567,0 C129.73696,0 131.767952,0.757429719 133.176543,2.27228916 C134.585134,3.78714859 135.28943,5.92771084 135.28943,8.6939759 L135.28943,26.8722892 C135.28943,29.6385542 134.585134,31.7791165 133.176543,33.2939759 C131.767952,34.8088353 129.73696,35.5662651 127.083567,35.5662651 Z M127.083567,30.626506 C128.95077,30.626506 129.884371,29.4903614 129.884371,27.2180723 L129.884371,8.34819277 C129.884371,6.07590361 128.95077,4.93975904 127.083567,4.93975904 C125.216365,4.93975904 124.282764,6.07590361 124.282764,8.34819277 L124.282764,27.2180723 C124.282764,29.4903614 125.216365,30.626506 127.083567,30.626506 Z" id="Shape"></path>
                <polygon id="Path" points="138.745273 0.493975904 144.150332 0.493975904 144.150332 30.1325301 153.04411 30.1325301 153.04411 35.0722892 138.745273 35.0722892"></polygon>
                <polygon id="Path" points="155.468078 0.493975904 160.873137 0.493975904 160.873137 35.0722892 155.468078 35.0722892"></polygon>
                <polygon id="Path" points="168.947849 5.43373494 163.297105 5.43373494 163.297105 0.493975904 180.003651 0.493975904 180.003651 5.43373494 174.352908 5.43373494 174.352908 35.0722892 168.947849 35.0722892"></polygon>
                <polygon id="Path" points="182.427619 0.493975904 187.832678 0.493975904 187.832678 35.0722892 182.427619 35.0722892"></polygon>
                <path d="M199.297836,35.5662651 C196.709959,35.5662651 194.736294,34.8253012 193.376839,33.3433735 C192.017385,31.8614458 191.337658,29.7702811 191.337658,27.0698795 L191.337658,8.49638554 C191.337658,5.79598394 192.017385,3.70481928 193.376839,2.22289157 C194.736294,0.740963855 196.709959,0 199.297836,0 C201.885712,0 203.859378,0.740963855 205.218832,2.22289157 C206.578286,3.70481928 207.258013,5.79598394 207.258013,8.49638554 L207.258013,12.1518072 L202.147776,12.1518072 L202.147776,8.15060241 C202.147776,6.01004016 201.246933,4.93975904 199.445246,4.93975904 C197.64356,4.93975904 196.742717,6.01004016 196.742717,8.15060241 L196.742717,27.4650602 C196.742717,29.5726908 197.64356,30.626506 199.445246,30.626506 C201.246933,30.626506 202.147776,29.5726908 202.147776,27.4650602 L202.147776,22.1795181 L207.258013,22.1795181 L207.258013,27.0698795 C207.258013,29.7702811 206.578286,31.8614458 205.218832,33.3433735 C203.859378,34.8253012 201.885712,35.5662651 199.297836,35.5662651 Z" id="Path"></path>
                <path d="M217.445611,35.5662651 C214.824977,35.5662651 212.843122,34.8170683 211.500047,33.3186747 C210.156971,31.8202811 209.485434,29.6714859 209.485434,26.8722892 L209.485434,24.8963855 L214.595671,24.8963855 L214.595671,27.2674699 C214.595671,29.5068273 215.529272,30.626506 217.396475,30.626506 C218.313697,30.626506 219.009803,30.3548193 219.484793,29.8114458 C219.959783,29.2680723 220.197278,28.3871486 220.197278,27.1686747 C220.197278,25.7196787 219.869698,24.4435743 219.21454,23.3403614 C218.559381,22.2371486 217.347338,20.9116466 215.578409,19.3638554 C213.35087,17.3879518 211.794868,15.6014056 210.910404,14.0042169 C210.02594,12.4070281 209.583708,10.6040161 209.583708,8.59518072 C209.583708,5.86184739 210.271624,3.74598394 211.647457,2.24759036 C213.023291,0.749196787 215.021524,0 217.642159,0 C220.230036,0 222.187322,0.749196787 223.514018,2.24759036 C224.840715,3.74598394 225.504063,5.89477912 225.504063,8.6939759 L225.504063,10.126506 L220.393825,10.126506 L220.393825,8.34819277 C220.393825,7.1626506 220.16452,6.29819277 219.705909,5.75481928 C219.247298,5.21144578 218.57576,4.93975904 217.691296,4.93975904 C215.88961,4.93975904 214.988767,6.04297189 214.988767,8.24939759 C214.988767,9.50080321 215.324535,10.6698795 215.996073,11.7566265 C216.667611,12.8433735 217.887844,14.1606426 219.656772,15.7084337 C221.917069,17.6843373 223.473071,19.4791165 224.324777,21.0927711 C225.176484,22.7064257 225.602337,24.6 225.602337,26.773494 C225.602337,29.6056225 224.906231,31.7791165 223.514018,33.2939759 C222.121806,34.8088353 220.099004,35.5662651 217.445611,35.5662651 Z" id="Path"></path>
                <polygon id="Path" points="230.286602 35.0722892 228.517674 35.0722892 228.517674 29.8361446 233.726185 29.8361446 233.726185 34.5289157 231.023656 41 228.517674 41"></polygon>
                <path d="M252.872959,35.5662651 C250.285082,35.5662651 248.311417,34.8253012 246.951963,33.3433735 C245.592509,31.8614458 244.912781,29.7702811 244.912781,27.0698795 L244.912781,8.49638554 C244.912781,5.79598394 245.592509,3.70481928 246.951963,2.22289157 C248.311417,0.740963855 250.285082,0 252.872959,0 C255.460836,0 257.434501,0.740963855 258.793955,2.22289157 C260.15341,3.70481928 260.833137,5.79598394 260.833137,8.49638554 L260.833137,12.1518072 L255.722899,12.1518072 L255.722899,8.15060241 C255.722899,6.01004016 254.822056,4.93975904 253.02037,4.93975904 C251.218683,4.93975904 250.31784,6.01004016 250.31784,8.15060241 L250.31784,27.4650602 C250.31784,29.5726908 251.218683,30.626506 253.02037,30.626506 C254.822056,30.626506 255.722899,29.5726908 255.722899,27.4650602 L255.722899,22.1795181 L260.833137,22.1795181 L260.833137,27.0698795 C260.833137,29.7702811 260.15341,31.8614458 258.793955,33.3433735 C257.434501,34.8253012 255.460836,35.5662651 252.872959,35.5662651 Z" id="Path"></path>
                <path d="M271.757788,35.5662651 C269.137154,35.5662651 267.13892,34.8170683 265.763087,33.3186747 C264.387254,31.8202811 263.699337,29.6714859 263.699337,26.8722892 L263.699337,0.493975904 L269.104396,0.493975904 L269.104396,27.2674699 C269.104396,28.453012 269.341891,29.3092369 269.816881,29.8361446 C270.291871,30.3630522 270.971598,30.626506 271.856062,30.626506 C272.740526,30.626506 273.420253,30.3630522 273.895243,29.8361446 C274.370233,29.3092369 274.607728,28.453012 274.607728,27.2674699 L274.607728,0.493975904 L279.81624,0.493975904 L279.81624,26.8722892 C279.81624,29.6714859 279.128323,31.8202811 277.75249,33.3186747 C276.376657,34.8170683 274.378423,35.5662651 271.757788,35.5662651 Z" id="Path"></path>
                <polygon id="Path" points="283.46863 0.493975904 288.873689 0.493975904 288.873689 30.1325301 297.767468 30.1325301 297.767468 35.0722892 283.46863 35.0722892"></polygon>
                <polygon id="Path" points="300.584531 5.43373494 294.933788 5.43373494 294.933788 0.493975904 311.640334 0.493975904 311.640334 5.43373494 305.98959 5.43373494 305.98959 35.0722892 300.584531 35.0722892"></polygon>
                <path d="M321.926206,35.5662651 C319.305571,35.5662651 317.307337,34.8170683 315.931504,33.3186747 C314.555671,31.8202811 313.867754,29.6714859 313.867754,26.8722892 L313.867754,0.493975904 L319.272813,0.493975904 L319.272813,27.2674699 C319.272813,28.453012 319.510308,29.3092369 319.985298,29.8361446 C320.460288,30.3630522 321.140015,30.626506 322.024479,30.626506 C322.908944,30.626506 323.588671,30.3630522 324.063661,29.8361446 C324.538651,29.3092369 324.776146,28.453012 324.776146,27.2674699 L324.776146,0.493975904 L329.984657,0.493975904 L329.984657,26.8722892 C329.984657,29.6714859 329.29674,31.8202811 327.920907,33.3186747 C326.545074,34.8170683 324.54684,35.5662651 321.926206,35.5662651 Z" id="Path"></path>
                <path d="M333.637048,0.493975904 L341.646362,0.493975904 C344.430786,0.493975904 346.461778,1.14437751 347.739338,2.44518072 C349.016897,3.74598394 349.655677,5.74658635 349.655677,8.44698795 L349.655677,10.5710843 C349.655677,14.1606426 348.476391,16.4329317 346.11782,17.3879518 L346.11782,17.486747 C347.428137,17.8819277 348.353549,18.688755 348.894055,19.9072289 C349.434561,21.1257028 349.704814,22.7558233 349.704814,24.7975904 L349.704814,30.873494 C349.704814,31.8614458 349.737571,32.6600402 349.803087,33.2692771 C349.868603,33.8785141 350.032393,34.4795181 350.294456,35.0722892 L344.791124,35.0722892 C344.594576,34.5124498 344.463544,33.9855422 344.398028,33.4915663 C344.332513,32.9975904 344.299755,32.1084337 344.299755,30.8240964 L344.299755,24.5012048 C344.299755,22.9204819 344.045881,21.8172691 343.538133,21.1915663 C343.030385,20.5658635 342.15411,20.253012 340.909309,20.253012 L339.042106,20.253012 L339.042106,35.0722892 L333.637048,35.0722892 L333.637048,0.493975904 Z M341.007582,15.313253 C342.088594,15.313253 342.899353,15.0333333 343.439859,14.473494 C343.980365,13.9136546 344.250618,12.9751004 344.250618,11.6578313 L344.250618,8.99036145 C344.250618,7.73895582 344.029502,6.83333333 343.58727,6.27349398 C343.145038,5.71365462 342.448931,5.43373494 341.498951,5.43373494 L339.042106,5.43373494 L339.042106,15.313253 L341.007582,15.313253 Z" id="Shape"></path>
                <polygon id="Path" points="353.25893 0.493975904 368 0.493975904 368 5.43373494 358.663989 5.43373494 358.663989 14.5722892 366.083661 14.5722892 366.083661 19.5120482 358.663989 19.5120482 358.663989 30.1325301 368 30.1325301 368 35.0722892 353.25893 35.0722892"></polygon>
            </g>
        </g>
    </g>
</svg>